Coordinates
version=1
nRows=5
nColumns=40
inDegrees=yes

Units are S.I. units (second, meters, Newtons, ...)
Angles are in degrees.

endheader
time	pelvis_tilt	pelvis_list	pelvis_rotation	pelvis_tx	pelvis_ty	pelvis_tz	hip_flexion_r	hip_adduction_r	hip_rotation_r	knee_angle_r	knee_angle_r_beta	ankle_angle_r	subtalar_angle_r	mtp_angle_r	hip_flexion_l	hip_adduction_l	hip_rotation_l	knee_angle_l	knee_angle_l_beta	ankle_angle_l	subtalar_angle_l	mtp_angle_l	lumbar_extension	lumbar_bending	lumbar_rotation	arm_flex_r	arm_add_r	arm_rot_r	elbow_flex_r	pro_sup_r	wrist_flex_r	wrist_dev_r	arm_flex_l	arm_add_l	arm_rot_l	elbow_flex_l	pro_sup_l	wrist_flex_l	wrist_dev_l
     35.20500000	     -4.53388682	     -4.35756938	    -11.91119444	      0.97426093	      0.92528524	      0.54400173	     19.79755609	      4.34806723	     -7.48690453	     20.92857497	     20.92857497	      7.00667305	      0.47249649	     -3.37791301	      0.13787353	     -9.48188418	    -16.35070234	     27.88437219	     27.88437219	     16.93303325	    -15.55210656	      1.36432074	     -9.73570382	      9.85475085	      0.11390302	     -9.22651444	    -12.95299876	    -22.92025432	     32.84384754	     46.65536856	      0.00000000	      0.00000000	     35.30142736	    -24.15147040	    -11.39323695	     77.78352973	     48.45012772	      0.00000000	      0.00000000
     35.22428571	     -4.39956995	     -4.47599625	    -11.47944601	      0.97460122	      0.92613117	      0.54865424	     19.01365568	      4.59830528	     -7.90689091	     20.69562374	     20.69562374	      7.47742411	      0.63778283	     -3.32544652	      1.33218894	    -10.40839209	    -15.55403079	     31.03698007	     31.03698007	     15.71891099	    -16.44276630	      0.92539900	     -9.86127702	      9.73081900	      0.25036078	     -8.31841952	    -13.35420427	    -22.94902103	     33.34745530	     46.64117134	      0.00000000	      0.00000000	     34.83592295	    -23.58218681	    -11.31430867	     77.68646958	     48.43695315	      0.00000000	      0.00000000
     35.24357143	     -4.39200819	     -4.54687836	    -10.97315715	      0.97468046	      0.92662589	      0.55286907	     18.38544209	      4.80242208	     -8.33577814	     20.42730766	     20.42730766	      7.94427025	      0.73760064	     -3.25856386	      2.92690987	    -11.28480230	    -14.51891987	     34.48126978	     34.48126978	     14.45105144	    -17.30469886	      0.57287399	     -9.77346915	      9.65401138	      0.34731429	     -7.47874544	    -13.84356848	    -22.96762682	     33.86205501	     46.62475787	      0.00000000	      0.00000000	     34.01421340	    -22.86511071	    -11.27331056	     77.47203025	     48.42088068	      0.00000000	      0.00000000
     35.26285714	     -4.24687174	     -4.65558750	    -10.45521244	      0.97455541	      0.92715585	      0.55678572	     17.67393077	      5.01552685	     -8.72655861	     20.25626709	     20.25626709	      8.39764704	      0.72416121	     -3.25146255	      4.50104713	    -12.13551015	    -13.44031409	     38.01965648	     38.01965648	     13.20190879	    -18.02551920	      0.56206114	     -9.88384943	      9.59836930	      0.49121214	     -6.50563208	    -14.38889134	    -22.95997992	     34.33675126	     46.61044125	      0.00000000	      0.00000000	     33.15911587	    -22.08474555	    -11.19956871	     77.19944245	     48.40182959	      0.00000000	      0.00000000
     35.28214286	     -4.23447711	     -4.68019649	     -9.89350591	      0.97415333	      0.92739541	      0.56029559	     17.19903212	      5.15983313	     -9.04259961	     20.19184289	     20.19184289	      8.95899202	      0.53885299	     -2.77032813	      6.58204039	    -12.76362496	    -11.93113647	     42.01600199	     42.01600199	     13.48459791	    -18.30942718	      4.62752418	     -9.78140969	      9.49881066	      0.22287672	     -5.37735124	    -15.04477827	    -22.34214479	     34.85655145	     46.53106815	      0.00000000	      0.00000000	     31.72628717	    -21.12865328	    -12.26722133	     76.88633306	     48.42717538	      0.00000000	      0.00000000
